
<svg xmlns="http://www.w3.org/2000/svg" xmlns:xlink="http://www.w3.org/1999/xlink" width="411" zoomAndPan="magnify" viewBox="0 0 308.25 308.249992" height="411" preserveAspectRatio="xMidYMid meet" version="1.0">
<defs>
<g/>
<clipPath id="6bc4413fcb">
<path d="M 0 0 L 307.441406 0 L 307.441406 307.441406 L 0 307.441406 Z M 0 0 " clip-rule="nonzero"/>
</clipPath>
<clipPath id="cfb5487f20">
<path d="M 26.933594 0 L 280.503906 0 C 287.648438 0 294.5 2.835938 299.550781 7.890625 C 304.601562 12.941406 307.441406 19.789062 307.441406 26.933594 L 307.441406 280.503906 C 307.441406 287.648438 304.601562 294.5 299.550781 299.550781 C 294.5 304.601562 287.648438 307.441406 280.503906 307.441406 L 26.933594 307.441406 C 19.789062 307.441406 12.941406 304.601562 7.890625 299.550781 C 2.835938 294.5 0 287.648438 0 280.503906 L 0 26.933594 C 0 19.789062 2.835938 12.941406 7.890625 7.890625 C 12.941406 2.835938 19.789062 0 26.933594 0 Z M 26.933594 0 " clip-rule="nonzero"/>
</clipPath>
<clipPath id="926ebcfdbd">
<path d="M 0 0 L 307.441406 0 L 307.441406 307.441406 L 0 307.441406 Z M 0 0 " clip-rule="nonzero"/>
</clipPath>
<clipPath id="80c97b88eb">
<path d="M 26.933594 0 L 280.503906 0 C 287.648438 0 294.5 2.835938 299.550781 7.890625 C 304.601562 12.941406 307.441406 19.789062 307.441406 26.933594 L 307.441406 280.503906 C 307.441406 287.648438 304.601562 294.5 299.550781 299.550781 C 294.5 304.601562 287.648438 307.441406 280.503906 307.441406 L 26.933594 307.441406 C 19.789062 307.441406 12.941406 304.601562 7.890625 299.550781 C 2.835938 294.5 0 287.648438 0 280.503906 L 0 26.933594 C 0 19.789062 2.835938 12.941406 7.890625 7.890625 C 12.941406 2.835938 19.789062 0 26.933594 0 Z M 26.933594 0 " clip-rule="nonzero"/>
</clipPath>
<clipPath id="92fef82d4d">
<rect x="0" width="308" y="0" height="308"/>
</clipPath>
<clipPath id="a7d654e56f">
<path d="M 95.761719 132.582031 L 211.679688 132.582031 L 211.679688 248.5 L 95.761719 248.5 Z M 95.761719 132.582031 " clip-rule="nonzero"/>
</clipPath>
<clipPath id="ea59e507ac">
<path d="M 0.761719 0.582031 L 116.679688 0.582031 L 116.679688 116.5 L 0.761719 116.5 Z M 0.761719 0.582031 " clip-rule="nonzero"/>
</clipPath>
</defs>
<g clip-path="url(#6bc4413fcb)">
<g clip-path="url(#cfb5487f20)">
<g transform="matrix(1, 0, 0, 1, 0, 0)">
<g clip-path="url(#92fef82d4d)">
<g clip-path="url(#926ebcfdbd)">
<g clip-path="url(#80c97b88eb)">
<path fill="#5900cd" d="M 0 0 L 307.441406 0 L 307.441406 307.441406 L 0 307.441406 Z M 0 0 " fill-opacity="1" fill-rule="nonzero"/>
</g>
</g>
</g>
</g>
</g>
</g>
<g fill="#ffffff" fill-opacity="1">
<g transform="translate(31.797635, 186.296711)">
<g>
<path d="M 4.890625 0 L 4.890625 -8.90625 C 8.972656 -12.289062 12.941406 -15.640625 16.796875 -18.953125 C 20.660156 -22.273438 24.109375 -25.5625 27.140625 -28.8125 C 30.179688 -32.070312 32.609375 -35.25 34.421875 -38.34375 C 36.242188 -41.445312 37.15625 -44.46875 37.15625 -47.40625 C 37.15625 -50.144531 36.40625 -52.566406 34.90625 -54.671875 C 33.40625 -56.785156 30.929688 -57.84375 27.484375 -57.84375 C 23.972656 -57.84375 21.320312 -56.691406 19.53125 -54.390625 C 17.75 -52.097656 16.859375 -49.320312 16.859375 -46.0625 L 4.984375 -46.0625 C 5.109375 -50.976562 6.191406 -55.078125 8.234375 -58.359375 C 10.273438 -61.648438 12.988281 -64.109375 16.375 -65.734375 C 19.757812 -67.367188 23.554688 -68.1875 27.765625 -68.1875 C 34.597656 -68.1875 39.914062 -66.316406 43.71875 -62.578125 C 47.519531 -58.847656 49.421875 -54.015625 49.421875 -48.078125 C 49.421875 -44.367188 48.570312 -40.757812 46.875 -37.25 C 45.1875 -33.738281 42.96875 -30.351562 40.21875 -27.09375 C 37.476562 -23.84375 34.507812 -20.796875 31.3125 -17.953125 C 28.125 -15.109375 25.03125 -12.476562 22.03125 -10.0625 L 51.046875 -10.0625 L 51.046875 0 Z M 4.890625 0 "/>
</g>
</g>
</g>
<g fill="#ffffff" fill-opacity="1">
<g transform="translate(86.001758, 186.296711)">
<g>
<path d="M 34 1.15625 C 27.800781 1.15625 22.5 -0.296875 18.09375 -3.203125 C 13.6875 -6.109375 10.285156 -10.160156 7.890625 -15.359375 C 5.503906 -20.566406 4.3125 -26.617188 4.3125 -33.515625 C 4.3125 -40.347656 5.503906 -46.378906 7.890625 -51.609375 C 10.285156 -56.847656 13.6875 -60.921875 18.09375 -63.828125 C 22.5 -66.734375 27.800781 -68.1875 34 -68.1875 C 40.1875 -68.1875 45.484375 -66.734375 49.890625 -63.828125 C 54.296875 -60.921875 57.695312 -56.847656 60.09375 -51.609375 C 62.488281 -46.378906 63.6875 -40.347656 63.6875 -33.515625 C 63.6875 -26.617188 62.488281 -20.566406 60.09375 -15.359375 C 57.695312 -10.160156 54.296875 -6.109375 49.890625 -3.203125 C 45.484375 -0.296875 40.1875 1.15625 34 1.15625 Z M 34 -9.859375 C 39.039062 -9.859375 43.15625 -11.960938 46.34375 -16.171875 C 49.539062 -20.390625 51.140625 -26.171875 51.140625 -33.515625 C 51.140625 -40.859375 49.539062 -46.632812 46.34375 -50.84375 C 43.15625 -55.0625 39.039062 -57.171875 34 -57.171875 C 28.882812 -57.171875 24.75 -55.0625 21.59375 -50.84375 C 18.4375 -46.632812 16.859375 -40.859375 16.859375 -33.515625 C 16.859375 -26.171875 18.4375 -20.390625 21.59375 -16.171875 C 24.75 -11.960938 28.882812 -9.859375 34 -9.859375 Z M 34 -9.859375 "/>
</g>
</g>
</g>
<g fill="#ffffff" fill-opacity="1">
<g transform="translate(153.996331, 186.296711)">
<g>
<path d="M 37.15625 0 L 37.15625 -12.453125 L 4.125 -12.453125 L 4.125 -22.21875 L 35.53125 -67.03125 L 49.421875 -67.03125 L 49.421875 -23.078125 L 58.21875 -23.078125 L 58.21875 -12.453125 L 49.421875 -12.453125 L 49.421875 0 Z M 17.234375 -23.078125 L 37.921875 -23.078125 L 37.921875 -53.53125 Z M 17.234375 -23.078125 "/>
</g>
</g>
</g>
<g fill="#ffffff" fill-opacity="1">
<g transform="translate(215.382982, 186.296711)">
<g>
<path d="M 30.171875 1.15625 C 25.566406 1.15625 21.410156 0.339844 17.703125 -1.28125 C 14.003906 -2.914062 11.050781 -5.234375 8.84375 -8.234375 C 6.644531 -11.234375 5.546875 -14.710938 5.546875 -18.671875 C 5.546875 -22.753906 6.613281 -26.328125 8.75 -29.390625 C 10.894531 -32.460938 13.722656 -34.671875 17.234375 -36.015625 C 14.171875 -37.347656 11.742188 -39.273438 9.953125 -41.796875 C 8.171875 -44.316406 7.28125 -47.144531 7.28125 -50.28125 C 7.28125 -53.46875 8.140625 -56.414062 9.859375 -59.125 C 11.585938 -61.84375 14.160156 -64.03125 17.578125 -65.6875 C 20.992188 -67.351562 25.191406 -68.1875 30.171875 -68.1875 C 35.148438 -68.1875 39.328125 -67.351562 42.703125 -65.6875 C 46.085938 -64.03125 48.640625 -61.84375 50.359375 -59.125 C 52.085938 -56.414062 52.953125 -53.46875 52.953125 -50.28125 C 52.953125 -47.21875 52.039062 -44.390625 50.21875 -41.796875 C 48.40625 -39.210938 46 -37.285156 43 -36.015625 C 46.570312 -34.671875 49.410156 -32.460938 51.515625 -29.390625 C 53.628906 -26.328125 54.6875 -22.753906 54.6875 -18.671875 C 54.6875 -14.710938 53.597656 -11.234375 51.421875 -8.234375 C 49.253906 -5.234375 46.300781 -2.914062 42.5625 -1.28125 C 38.832031 0.339844 34.703125 1.15625 30.171875 1.15625 Z M 30.171875 -39.640625 C 33.484375 -39.640625 36.097656 -40.5 38.015625 -42.21875 C 39.929688 -43.945312 40.890625 -46.15625 40.890625 -48.84375 C 40.890625 -51.78125 39.945312 -54.078125 38.0625 -55.734375 C 36.175781 -57.390625 33.546875 -58.21875 30.171875 -58.21875 C 26.722656 -58.21875 24.070312 -57.390625 22.21875 -55.734375 C 20.363281 -54.078125 19.4375 -51.78125 19.4375 -48.84375 C 19.4375 -46.09375 20.378906 -43.867188 22.265625 -42.171875 C 24.148438 -40.484375 26.785156 -39.640625 30.171875 -39.640625 Z M 30.171875 -9.09375 C 34.253906 -9.09375 37.347656 -10.097656 39.453125 -12.109375 C 41.554688 -14.117188 42.609375 -16.660156 42.609375 -19.734375 C 42.609375 -23.109375 41.507812 -25.753906 39.3125 -27.671875 C 37.113281 -29.585938 34.066406 -30.546875 30.171875 -30.546875 C 26.273438 -30.546875 23.191406 -29.585938 20.921875 -27.671875 C 18.660156 -25.753906 17.53125 -23.109375 17.53125 -19.734375 C 17.53125 -16.660156 18.597656 -14.117188 20.734375 -12.109375 C 22.867188 -10.097656 26.015625 -9.09375 30.171875 -9.09375 Z M 30.171875 -9.09375 "/>
</g>
</g>
</g>
</svg>